<?xml version="1.0" standalone="no"?>
<!DOCTYPE svg PUBLIC "-//W3C//DTD SVG 20010904//EN"
 "http://www.w3.org/TR/2001/REC-SVG-20010904/DTD/svg10.dtd">
<svg version="1.0" xmlns="http://www.w3.org/2000/svg"
 width="687.000000pt" height="687.000000pt" viewBox="0 0 687.000000 687.000000"
 preserveAspectRatio="xMidYMid meet">

<g transform="translate(0.000000,687.000000) scale(0.100000,-0.100000)"
fill="#000000" stroke="none">
<path d="M3241 6749 c-188 -23 -404 -95 -561 -188 -344 -205 -599 -552 -679
-926 -9 -42 -31 -203 -31 -227 0 -4 -154 -8 -342 -10 -303 -3 -349 -6 -392
-22 -65 -25 -148 -109 -170 -172 -12 -35 -29 -193 -57 -534 -21 -267 -68 -838
-104 -1270 -35 -432 -96 -1174 -135 -1650 -39 -476 -79 -964 -90 -1086 -20
-234 -18 -270 20 -344 28 -54 104 -117 163 -135 44 -13 361 -15 2556 -15 1675
0 2518 3 2543 10 98 28 189 130 204 229 4 28 -9 245 -34 556 -23 281 -67 816
-97 1190 -30 374 -69 842 -85 1040 -16 198 -41 500 -55 670 -14 171 -32 391
-40 490 -8 99 -26 322 -40 495 -25 305 -26 317 -56 377 -34 70 -70 105 -149
142 l-55 26 -342 3 -343 3 0 37 c0 71 -31 228 -66 331 -167 500 -602 876
-1119 966 -114 20 -335 27 -444 14z m339 -374 c128 -19 216 -47 332 -107 275
-140 468 -372 552 -662 14 -46 28 -111 32 -145 l7 -61 -1083 0 -1082 0 7 53
c28 221 139 447 303 615 236 242 592 359 932 307z m-365 -1703 c125 -86 189
-318 136 -491 -25 -81 -70 -162 -135 -241 -62 -75 -79 -113 -84 -192 -5 -82 7
-120 57 -181 48 -58 58 -95 36 -136 -32 -64 -106 -86 -172 -53 -133 68 -203
278 -158 471 20 81 60 157 131 246 75 93 98 144 97 220 -1 74 -13 105 -66 174
-36 46 -42 61 -42 102 0 39 5 53 29 78 47 49 104 50 171 3z m666 2 c118 -81
185 -298 145 -468 -20 -86 -60 -161 -132 -251 -74 -91 -97 -144 -98 -220 0
-68 23 -127 76 -188 57 -66 35 -147 -49 -176 -45 -16 -75 -11 -123 21 -84 57
-139 172 -147 308 -9 144 31 256 145 403 77 99 96 147 90 230 -4 63 -18 96
-83 186 -44 61 -27 142 37 175 42 21 89 15 139 -20z m361 -1514 c55 -16 78
-51 78 -121 0 -47 -5 -63 -24 -86 l-24 -28 -1317 -3 -1316 -2 -28 28 c-58 58
-47 171 19 204 33 17 116 18 1305 18 840 0 1283 -4 1307 -10z m-1082 -589 l0
-268 -92 -7 c-50 -3 -108 -6 -130 -6 l-38 0 0 275 0 275 130 0 130 0 0 -269z
m460 0 l0 -268 -92 -7 c-50 -3 -106 -6 -125 -6 l-33 0 0 275 0 275 125 0 125
0 0 -269z m470 0 l0 -268 -92 -7 c-50 -3 -106 -6 -125 -6 l-33 0 0 275 0 275
125 0 125 0 0 -269z m-1350 -26 l0 -125 -517 0 c-285 0 -535 3 -555 6 -53 9
-85 42 -93 97 -9 55 16 115 55 134 19 10 155 13 568 13 l542 0 0 -125z m2276
-432 c-20 -198 -59 -333 -151 -518 -141 -283 -375 -521 -645 -657 -58 -29
-106 -53 -107 -54 -1 0 9 -33 22 -73 29 -85 31 -127 8 -153 -15 -17 -51 -18
-720 -18 -690 0 -703 0 -723 20 -26 26 -25 61 5 150 14 40 24 74 22 75 -1 1
-43 23 -93 49 -466 239 -777 695 -806 1184 l-4 62 1599 0 1599 0 -6 -67z"/>
</g>
</svg>
